<svg version="1.1" id="Layer_1" xmlns="http://www.w3.org/2000/svg" xmlns:xlink="http://www.w3.org/1999/xlink" x="0px" y="0px" viewBox="0 0 179.6 40.7" style="enable-background:new 0 0 179.6 40.7;" xml:space="preserve">
 <style type="text/css">
  .st0{clip-path:url(#SVGID_2_);fill:url(#SVGID_3_);}
	.st1{fill:#C9317F;}
	.st2{fill:#362F45;}
 </style>
 <g>
  <g>
   <defs>
    <path id="SVGID_1_" d="M7.8,28.2c0-2.2,1.8-3.9,3.9-3.9h19.5v3.9c0,2.2-1.8,3.9-3.9,3.9H11.7C9.6,32.1,7.8,30.4,7.8,28.2
				 M4.4,0.9l2.3,7.8h20.7c2.2,0,3.9,1.8,3.9,3.9v3.9H11.7C5.3,16.5,0,21.8,0,28.2C0,34.7,5.3,40,11.7,40h15.6
				c6.5,0,11.7-5.3,11.7-11.7v-7.8v-3.9v-3.9c0-6.5-5.3-11.7-11.7-11.7H4.4z">
    </path>
   </defs>
   <clipPath id="SVGID_2_">
    <use href="#SVGID_1_" style="overflow:visible;">
    </use>
   </clipPath>
   <linearGradient id="SVGID_3_" gradientUnits="userSpaceOnUse" x1="0.2934" y1="20.3264" x2="40.1478" y2="20.3264">
    <stop offset="0" style="stop-color:#F9B848">
    </stop>
    <stop offset="0.1382" style="stop-color:#F5AE4C">
    </stop>
    <stop offset="0.3748" style="stop-color:#EC9357">
    </stop>
    <stop offset="0.6809" style="stop-color:#DC6669">
    </stop>
    <stop offset="0.9979" style="stop-color:#C9317F">
    </stop>
   </linearGradient>
   <rect x="0.3" class="st0" width="39.9" height="40.7">
   </rect>
  </g>
  <polygon class="st1" points="50.2,16.5 43.1,16.5 43.1,24.3 52.5,24.3 	">
  </polygon>
  <path class="st2" d="M66.1,20.5c0,2.7,1.8,5,4.7,5c2.8,0,4.7-2.2,4.7-5c0-2.9-1.9-5-4.7-5C67.9,15.5,66.1,17.7,66.1,20.5
		 M78.7,28.3h-3.4v-1.9c-1.1,1.4-2.7,2.3-4.9,2.3c-4.4,0-7.8-3.4-7.8-8.2c0-4.8,3.4-8.2,7.8-8.2c2.2,0,3.8,0.9,4.9,2.3v-1.9h3.4
		V28.3z">
  </path>
  <path class="st2" d="M108.2,18.5v9.8h-3.4v-8.7c0-2.6-1.4-4.1-3.6-4.1c-2.2,0-4.1,1.5-4.1,4.1v8.7h-3.4v-8.7c0-2.6-1.4-4.1-3.6-4.1
		c-2.2,0-4.1,1.5-4.1,4.1v8.7h-3.4V12.6h3.4v1.9c1.3-1.8,3.2-2.3,4.8-2.3c2.4,0,4.3,1.1,5.4,2.8c1.4-2.2,3.8-2.8,5.7-2.8
		C105.5,12.2,108.2,14.8,108.2,18.5">
  </path>
  <path class="st2" d="M133.9,20.5c0,3,2.1,5,4.9,5s4.9-2.1,4.9-5c0-3-2.1-5-4.9-5S133.9,17.5,133.9,20.5 M147.2,20.5
		c0,4.7-3.6,8.2-8.4,8.2c-4.8,0-8.4-3.5-8.4-8.2c0-4.7,3.6-8.2,8.4-8.2C143.6,12.2,147.2,15.8,147.2,20.5">
  </path>
  <path class="st2" d="M163.7,14.7l-2.2,2.3c-1.1-1-2.3-1.6-3.8-1.6c-2.6,0-4.6,2.1-4.6,5c0,3,2,5,4.6,5c1.5,0,2.8-0.7,3.8-1.6
		l2.1,2.4c-1.4,1.6-3.5,2.5-5.9,2.5c-5,0-8.2-3.5-8.2-8.2c0-4.7,3.2-8.2,8.2-8.2C160.2,12.2,162.3,13.1,163.7,14.7">
  </path>
  <path class="st2" d="M177.8,16.6c-0.9-0.6-2.9-1.3-4.8-1.3c-1.9,0-3,0.8-3,1.9c0,1.1,1.1,1.4,2.6,1.6l1.6,0.2
		c3.4,0.5,5.4,1.9,5.4,4.6c0,3-2.6,5.1-7.1,5.1c-1.6,0-4.4-0.3-6.7-2l1.6-2.6c1.1,0.9,2.6,1.6,5.2,1.6c2.3,0,3.6-0.7,3.6-1.9
		c0-0.9-0.8-1.5-2.7-1.7l-1.6-0.2c-3.5-0.5-5.3-2.1-5.3-4.6c0-3.1,2.5-5,6.5-5c2.5,0,4.7,0.6,6.3,1.7L177.8,16.6z">
  </path>
  <path class="st2" d="M114.6,20.5c0,2.7,1.8,5,4.7,5c2.8,0,4.7-2.2,4.7-5c0-2.9-1.9-5-4.7-5C116.4,15.5,114.6,17.7,114.6,20.5
		 M123.8,14.5V8.8l3.4-1.2v20.7h-3.4v-1.9c-1.1,1.4-2.7,2.3-4.9,2.3c-4.4,0-7.8-3.4-7.8-8.2s3.4-8.2,7.8-8.2
		C121.1,12.2,122.7,13.1,123.8,14.5">
  </path>
 </g>
</svg>